<?xml version="1.0" encoding="UTF-8" standalone="no"?>
<!-- Created with Inkscape (http://www.inkscape.org/) -->

<svg
   width="521.90234mm"
   height="223.42563mm"
   viewBox="0 0 521.90234 223.42563"
   version="1.1"
   id="svg833"
   xml:space="preserve"
   xmlns:inkscape="http://www.inkscape.org/namespaces/inkscape"
   xmlns:sodipodi="http://sodipodi.sourceforge.net/DTD/sodipodi-0.dtd"
   xmlns="http://www.w3.org/2000/svg"
   xmlns:svg="http://www.w3.org/2000/svg"
   xmlns:bx="https://boxy-svg.com"><sodipodi:namedview
     id="namedview835"
     pagecolor="#ffffff"
     bordercolor="#000000"
     borderopacity="0.25"
     inkscape:showpageshadow="2"
     inkscape:pageopacity="0.0"
     inkscape:pagecheckerboard="0"
     inkscape:deskcolor="#d1d1d1"
     inkscape:document-units="mm"
     showgrid="false" /><defs
     id="defs830"><style
       bx:fonts="Imprima"
       id="style103">@import url(https://fonts.googleapis.com/css2?family=Imprima%3Aital%2Cwght%400%2C400&amp;display=swap);</style><style
       bx:fonts="Imprima"
       id="style103-1">@import url(https://fonts.googleapis.com/css2?family=Imprima%3Aital%2Cwght%400%2C400&amp;display=swap);</style></defs><g
     inkscape:label="Layer 1"
     inkscape:groupmode="layer"
     id="layer1"
     transform="translate(107.81734,-73.574362)"><path
       d="m 332.78505,98.130398 c 1.15435,1.17409 0.59743,3.164852 -1.03486,3.703062 -0.49769,0.17871 -0.73666,0.41769 -0.91537,0.91538 -0.27846,0.77614 -0.33872,6.50945 -0.079,6.90739 0.11948,0.21923 0.3782,0.11949 1.11486,-0.4582 1.23435,-0.93616 3.20537,-1.9305 4.97689,-2.48845 1.03486,-0.33872 2.07077,-0.47795 3.98152,-0.53717 3.10562,-0.11949 5.21586,0.2982 7.78328,1.53255 2.74716,1.3341 4.14048,2.62767 7.74379,7.16609 1.79127,2.24947 3.26459,4.16022 3.28433,4.25997 0,0.0998 -0.47794,0.3782 -1.07538,0.61717 -0.59744,0.23898 -1.49307,0.67641 -1.99076,0.97564 -1.1346,0.65666 -3.24485,2.58819 -3.62305,3.32486 -0.7564,1.49306 0.0997,3.16484 1.65204,3.16484 0.95589,-0.0197 1.33409,-0.23897 2.52792,-1.53255 1.09513,-1.19487 2.76691,-2.11024 4.43973,-2.44896 0.99538,-0.21923 1.1346,-0.19949 1.45358,0.13923 0.19949,0.19949 3.32486,4.12074 6.94791,8.71943 l 6.58944,8.36097 -0.93615,0.31898 c -3.50356,1.19487 -6.27047,3.94099 -5.95253,5.91201 0.31898,2.07076 3.08588,2.42818 4.00125,0.51743 0.65667,-1.37358 3.06614,-2.66716 5.15561,-2.72742 l 0.85615,-0.0395 6.82842,8.61969 c 3.74254,4.73792 6.76816,8.63943 6.74841,8.65917 -0.0395,0.0198 -0.87589,0.2982 -1.83179,0.61718 -2.34921,0.77614 -4.69843,2.14972 -5.912,3.42356 -0.85615,0.89563 -0.99538,1.17409 -0.99538,1.83178 0,0.9559 0.55691,1.7123 1.47333,2.03024 0.85615,0.27846 1.53255,0.0198 2.66715,-1.03486 1.01512,-0.93615 3.56383,-2.16946 5.4351,-2.62767 2.3887,-0.57666 1.41307,-1.51281 10.55018,10.07327 5.65329,7.18688 8.40046,10.80993 8.81814,11.70557 0.55795,1.15434 0.61718,1.49306 0.61718,3.18458 0,2.24948 -0.35846,3.44435 -1.49307,5.03612 -2.42818,3.38512 -7.02688,4.48024 -10.66967,2.54871 -0.55691,-0.2982 -10.53044,-8.06174 -22.13626,-17.21963 l -21.12217,-16.68142 0.47794,-0.97564 c 0.71693,-1.39332 1.6323,-2.36896 2.22973,-2.36896 0.73667,0 1.85153,-1.19487 1.85153,-1.99075 0,-1.95128 -2.03023,-2.78665 -4.14048,-1.71231 -1.11487,0.57666 -2.12999,1.59282 -3.12536,3.16485 -0.49769,0.81667 -0.79589,1.09513 -0.9559,0.97564 -15.38784,-12.08377 -28.86493,-22.8137 -29.64108,-23.60959 -5.47458,-5.51406 -6.07201,-14.77067 -1.37358,-21.02139 l 0.83537,-1.09513 -1.55229,-0.15897 c -2.06972,-0.21923 -4.99663,-0.0395 -6.01175,0.37821 -0.61718,0.23897 -0.81563,0.43742 -0.81563,0.77614 0,0.63692 -0.69718,1.43281 -1.47333,1.69256 -1.37358,0.43743 -2.70768,-0.65666 -2.70768,-2.22973 0,-0.35846 0.21924,-1.11487 0.47795,-1.69256 0.61718,-1.29358 1.69256,-2.11024 3.58357,-2.70768 1.23435,-0.3782 1.85153,-0.43847 4.93637,-0.43847 2.28896,0 3.46409,-0.0592 3.38408,-0.19949 -0.89563,-1.53254 -3.54305,-3.78201 -5.5338,-4.7379 -1.2541,-0.5777 -1.55333,-0.63692 -3.38408,-0.65666 -2.19025,-0.0395 -2.70768,-0.19949 -3.16485,-1.07538 -0.3782,-0.73668 -0.3782,-1.25411 0,-1.99077 0.49769,-0.93615 1.31332,-1.2541 3.36434,-1.23435 3.12536,0.0197 5.93175,1.17408 8.89814,3.68228 l 1.37358,1.15435 v -1.35384 c 0.0198,-4.57896 2.04998,-7.624322 5.07664,-7.624322 0.75536,0.004 1.03382,0.10287 1.51177,0.58081 z m 21.22089,34.220042 c -3.92126,1.93049 -7.4456,6.17072 -7.6638,9.21711 -0.0998,1.39333 0.23898,2.04999 1.29358,2.48845 1.29357,0.55692 2.84691,-0.47795 2.84691,-1.89101 0,-0.75641 0.69718,-2.0105 1.79126,-3.24485 1.17409,-1.31332 3.80177,-3.14511 4.49895,-3.14511 1.31435,0 2.44896,-1.35384 2.16946,-2.60793 -0.08,-0.31898 -0.41768,-0.79589 -0.7564,-1.09512 -0.53717,-0.45821 -0.7564,-0.51743 -1.75178,-0.43743 -0.73563,0.0592 -1.57204,0.2982 -2.42818,0.71589 z"
       id="path910"
       style="fill:#d6ffd6;fill-opacity:1;stroke-width:0.0103902"
       inkscape:export-filename="background.svg"
       inkscape:export-xdpi="96"
       inkscape:export-ydpi="96" /><path
       d="m 291.32984,207.35425 c -3.53384,0.49081 -7.43931,2.2367 -10.86798,4.86605 -1.26209,0.96059 -2.08946,1.70382 -3.5058,3.12016 -1.43738,1.43738 -2.40498,2.55924 -3.60397,4.14386 -5.67239,7.53046 -10.00555,18.13201 -12.76813,31.23669 -2.7836,13.18181 -1.49347,23.6922 3.88443,31.71348 4.51547,6.74516 12.24226,11.61121 21.8131,13.74274 2.90982,0.65208 5.16755,0.91852 6.62596,0.79231 3.11315,-0.28047 6.54183,-1.05174 9.53578,-2.15957 4.74686,-1.75991 8.55416,-4.13685 11.82157,-7.38322 1.64772,-1.64071 2.46808,-2.61533 3.65304,-4.34719 5.56722,-8.12645 7.36218,-19.28191 5.34284,-33.235 -0.65909,-4.56455 -3.11315,-12.59985 -5.72847,-18.75604 -3.83535,-9.05198 -8.77152,-15.96542 -14.12839,-19.79375 -2.51716,-1.809 -5.23767,-3.04304 -7.89506,-3.58994 -1.5706,-0.32955 -3.29546,-0.46978 -4.17892,-0.35058 z"
       id="path940"
       style="fill:#d6ffd6;fill-opacity:1;stroke:none;stroke-width:0.0070116" /><g
       transform="matrix(0.01211998,0,0,-0.01211998,-126.76725,161.70068)"
       id="g1026"
       style="fill:#d6ffd6;fill-opacity:1"><path
         d="m 6590.9,5002.9 c -226,-53.6 -475,-270.1 -699.2,-609.1 l -143.7,-216.5 -28.7,53.6 c -32.6,61.3 -17.3,166.6 42.1,300.7 17.2,38.3 24.9,70.9 17.2,70.9 -49.8,0 -227.9,-130.3 -295,-216.5 -124.5,-155.2 -176.2,-285.4 -185.8,-465.5 -9.6,-166.6 17.2,-277.7 103.4,-452.1 24.9,-49.8 46,-97.7 46,-105.4 0,-7.7 -109.2,-70.9 -241.4,-139.8 -197.3,-101.5 -241.3,-118.8 -256.7,-95.8 -9.6,15.3 -57.5,143.7 -107.3,287.3 -91.9,268.2 -168.6,440.6 -197.3,440.6 -23,0 -222.2,-70.9 -268.2,-95.8 -40.2,-21.1 -36.4,-26.8 86.2,-159 176.2,-189.6 245.2,-300.7 312.2,-501.9 70.9,-212.6 111.1,-450.1 122.6,-722.1 l 9.6,-205 -90,-13.4 C 4512.3,2116 4326.5,2027.9 4125.4,1824.8 3805.5,1504.9 3705.9,1072 3855.3,642.9 3987.8,260.2 4305.7,-17.6 4704.1,-98 c 195.4,-40.2 323.7,-38.3 501.8,7.6 151.3,38.3 386.9,149.4 440.6,206.9 23,26.8 24.9,57.5 11.5,166.7 -42.1,342.9 78.5,743.2 304.6,1009.5 61.3,72.8 63.2,78.5 42.1,149.4 -32.6,107.3 -199.2,348.6 -304.6,440.6 -118.8,103.4 -367.8,226 -515.3,254.8 -143.7,26.8 -139.8,15.3 -139.8,423.3 V 2852 l 208.8,109.2 c 113,59.4 214.5,109.2 222.2,109.2 7.6,0 9.6,-57.5 1.9,-128.3 -34.5,-360.1 130.3,-678.1 431,-827.5 114.9,-57.5 314.2,-113 335.2,-93.8 5.8,5.7 -15.3,59.4 -47.9,118.8 -57.5,111.1 -113,308.4 -91.9,331.4 7.7,5.7 91.9,-49.8 191.6,-124.5 300.7,-229.9 509.5,-302.7 831.3,-287.3 151.3,7.7 212.6,19.2 298.8,59.4 61.3,26.8 114.9,61.3 120.7,76.6 15.3,40.2 -40.2,258.6 -97.7,386.9 -32.6,76.6 -97.7,162.8 -216.5,283.5 -91.9,95.8 -149.4,164.7 -128.3,157.1 21.1,-7.6 99.6,-32.6 172.4,-51.7 153.2,-42.1 287.3,-38.3 503.8,15.3 l 139.8,32.6 -101.5,103.4 c -59.4,61.3 -91.9,107.3 -82.4,116.8 11.5,9.6 70.9,36.4 134.1,59.4 216.4,80.5 379.3,214.5 515.3,421.4 78.5,122.6 78.5,124.5 -92,235.6 -145.6,93.9 -304.6,141.7 -524.8,159 -193.5,15.3 -193.5,15.3 -147.5,143.7 15.3,46 24.9,86.2 21.1,91.9 -5.7,3.8 -47.9,15.3 -91.9,24.9 -185.8,36.4 -494.2,-72.8 -616.8,-216.5 l -68.9,-80.4 v 63.2 c 0,32.6 -30.6,155.2 -69,272 -90,272 -84.3,310.3 72.8,467.4 107.3,109.2 111.1,114.9 69,126.4 -63.3,18.8 -262.5,16.9 -346.8,-4.2 z"
         id="path1010"
         style="fill:#d6ffd6;fill-opacity:1" /><path
         d="m 2503.2,2321.2 c -308.4,-51.7 -628.3,-277.7 -787.3,-559.3 -381.2,-668.5 -15.3,-1501.8 743.2,-1691.4 178.1,-44.1 442.5,-28.7 632.1,36.4 176.2,63.2 375.4,195.4 482.7,323.7 l 78.5,95.8 -32.6,136 c -76.6,312.2 -57.5,595.7 57.5,879.2 l 63.2,159 -61.3,101.5 c -34.5,57.5 -118.8,157.1 -189.6,224.1 -264.2,251 -618.6,356.3 -986.4,295 z"
         id="path1012"
         style="fill:#d6ffd6;fill-opacity:1" /><path
         d="m 6755.6,1547.4 c -365.8,-80.4 -703,-379.3 -829.4,-739.4 -59.4,-168.6 -72.8,-478.9 -30.7,-649.4 72.8,-289.3 235.6,-522.9 473.1,-681.9 660.8,-438.7 1526.6,-114.9 1752.7,653.2 44.1,153.2 44.1,440.6 0,593.8 -176.1,599.6 -764.2,953.9 -1365.7,823.7 z"
         id="path1014"
         style="fill:#d6ffd6;fill-opacity:1" /><path
         d="M 3625.7,189.3 C 3482,51.4 3344.1,-32.9 3144.9,-103.8 c -120.7,-44 -176.2,-51.7 -408,-55.5 l -268.2,-5.7 -32.6,-120.7 c -130.3,-490.4 130.3,-1045.8 597.6,-1277.6 216.4,-107.3 440.6,-147.5 651.3,-118.8 245.2,32.6 463.6,130.3 630.2,279.7 l 72.8,65.1 -55.6,111.1 c -128.3,262.4 -166.6,635.9 -91.9,915.6 19.2,74.7 32.6,134.1 30.7,136 0,0 -59.4,40.2 -128.3,90 -128.3,90 -279.7,241.4 -337.1,341 -19.2,30.6 -38.3,55.5 -44.1,55.5 -5.7,-1.9 -67,-55.6 -136,-122.6 z"
         id="path1016"
         style="fill:#d6ffd6;fill-opacity:1" /><path
         d="m 5543.1,-190 c -233.7,-118.8 -400.3,-157.1 -660.8,-143.7 -105.4,5.8 -239.4,23 -296.9,38.3 -57.5,17.2 -107.3,26.8 -111.1,24.9 -1.9,-3.8 -19.2,-69 -34.5,-147.5 -107.3,-498 160.9,-1026.7 634,-1252.7 174.3,-82.4 304.6,-111.1 498,-109.2 365.8,0 695.3,166.7 909.9,459.7 88.1,118.8 191.5,333.3 191.5,394.6 0,13.4 -53.6,44.1 -118.8,69 -327.4,116.9 -610.9,365.9 -758.4,666.6 -28.7,53.7 -55.6,97.7 -61.3,97.7 -5.8,-1.9 -92,-46 -191.6,-97.7 z"
         id="path1018"
         style="fill:#d6ffd6;fill-opacity:1" /><path
         d="m 2520.5,-1540.4 c -222.2,-314.1 -264.3,-756.6 -107.3,-1114.8 185.8,-421.4 586.1,-680 1051.6,-680 252.9,0 482.7,70.9 660.8,203.1 l 51.7,36.4 -70.9,141.7 c -145.6,289.2 -176.2,714.5 -72.8,1017.1 l 46,136 -99.6,-32.6 c -249,-86.2 -513.3,-91.9 -789.2,-17.2 -205,53.6 -352.5,134.1 -555.5,300.7 l -76.6,61.3 z"
         id="path1020"
         style="fill:#d6ffd6;fill-opacity:1" /><path
         d="m 4451.3,-1618.9 c -42.1,-47.9 -107.3,-147.5 -143.7,-222.2 -224.1,-459.7 -143.7,-963.5 210.7,-1323.6 224.1,-227.9 486.5,-335.2 817.9,-335.2 434.8,0 821.7,237.5 1013.3,622.5 143.7,293.1 164.7,580.4 65.1,885 -76.6,231.8 -69,226 -262.4,132.2 -90,-44.1 -210.7,-92 -266.3,-103.4 -457.8,-101.5 -927.1,23 -1252.7,335.2 l -105.4,97.7 z"
         id="path1022"
         style="fill:#d6ffd6;fill-opacity:1" /><path
         d="m 4240.6,-3312.2 c -86.2,-72.8 -350.5,-183.9 -517.2,-218.4 -293.1,-59.4 -614.9,-11.5 -890.7,134.1 -63.2,32.5 -120.7,61.3 -126.4,65.1 -7.7,3.8 -23,-65.1 -34.5,-153.2 -49.8,-358.2 67,-697.2 333.3,-963.5 503.8,-505.7 1352.3,-421.4 1748.8,170.5 105.4,157.1 172.4,329.5 189.6,494.2 9.6,97.7 7.7,111.1 -24.9,122.6 -137.9,47.9 -363.9,176.2 -480.8,273.9 -74.7,65.1 -139.8,116.8 -143.7,116.8 -3.7,-1.9 -26.7,-19.1 -53.5,-42.1 z"
         id="path1024"
         style="fill:#d6ffd6;fill-opacity:1" /></g><g
       transform="matrix(0.01153945,0,0,-0.01153945,91.152311,118.17946)"
       id="g1076"
       style="fill:#d6ffd6;fill-opacity:1"><path
         d="m 4392.9,3844.5 c -573,-40.3 -1272.5,-157.1 -1675,-277.9 C 1441.5,3181.4 410.5,2355.4 144.1,1508.4 100,1366.6 100,1349.3 100,569.3 V -226 l 53.7,-153.3 c 72.8,-205.1 159.1,-343 304.7,-483 176.3,-168.6 389,-266.4 676.5,-312.4 63.2,-9.6 283.6,-26.8 488.7,-38.3 944.8,-53.7 1205.5,-182.1 2150.3,-1057.9 716.8,-665 1176.7,-973.6 1759.3,-1174.8 918,-318.1 1770.8,-256.8 2654.3,187.8 864.3,435 1481.4,1171 1659.6,1977.8 38.3,176.3 42.2,256.8 49.8,975.5 9.6,849 0,1013.8 -82.4,1326.2 C 9680.4,1541 9391,2022 8934.9,2476.2 c -354.6,356.5 -847.1,699.5 -1305.1,912.2 -787.7,366.1 -2029.5,540.5 -3236.9,456.1 z M 5954.8,3513 c 705.3,-90.1 1192,-224.2 1657.7,-460 C 9013.4,2342 9791.5,1102 9550,-38.3 9327.7,-1084.7 8296.6,-1985.4 7083.5,-2192.4 c -199.3,-34.5 -291.3,-38.3 -563.4,-32.6 -484.9,13.4 -866.3,109.2 -1322.4,331.5 -442.7,214.6 -697.6,410.1 -1477.6,1128.8 -701.3,647.9 -1075,824.2 -1837.8,874 -597.9,38.3 -810.7,72.8 -977.4,157.2 -180.1,93.9 -377.5,329.6 -452.3,542.4 -51.7,151.4 -67.1,360.3 -38.3,511.7 28.7,145.6 138,387.1 253,553.9 103.5,151.4 383.3,444.6 573,597.9 479.1,387.1 1188.2,726.4 1828.3,875.8 337.3,78.6 931.4,162.9 1400.9,199.3 222.4,17.2 1274.5,-7.7 1485.3,-34.5 z"
         id="path1072"
         style="fill:#d6ffd6;fill-opacity:1" /><path
         d="M 4632.4,3194.9 C 3892.6,3158.5 3221.9,3045.4 2698.7,2867.2 2091.2,2658.3 1437.7,2240.5 1102.3,1845.7 763.1,1447 696,1134.7 893.4,862.5 c 118.8,-162.9 260.6,-207 764.7,-235.7 435,-23 607.5,-46 852.8,-107.3 569.2,-143.8 889.3,-348.8 1690.3,-1090.5 538.5,-498.3 827.9,-714.8 1195.9,-898.8 195.5,-99.7 488.7,-201.2 711,-251.1 224.2,-49.8 684.2,-59.4 923.7,-19.2 781.9,130.3 1523.6,615.2 1906.9,1247.6 450.4,743.6 335.4,1567.7 -329.6,2345.7 -272.1,320.1 -751.3,682.3 -1180.5,896.9 -670.8,331.7 -1701.9,496.5 -2796.2,444.8 z M 7062.5,732.2 c 525.1,-124.6 743.6,-569.2 442.7,-900.7 -460,-502.1 -1538.9,-272.1 -1538.9,325.8 0,410.1 555.8,701.4 1096.2,574.9 z"
         id="path1074"
         style="fill:#d6ffd6;fill-opacity:1" /></g><g
       id="g1111"
       transform="matrix(5.4716647,0,0,5.4716647,8.5320056,191.69253)"
       style="fill:#d6ffd6;fill-opacity:1">
	<g
   id="g1109"
   transform="translate(-1.5593071,-1.4828505)"
   style="fill:#d6ffd6;fill-opacity:1">
		<path
   style="fill:#d6ffd6;fill-opacity:1"
   d="m 12.889,2.805 -0.324,0.136 c -0.497,0.208 -0.791,0.479 -1.044,0.753 0.232,0.108 0.455,0.246 0.667,0.411 0.473,0.385 0.792,0.801 1.042,1.353 l 0.376,0.825 -0.9,-0.111 c -0.645,-0.078 -1.077,0.066 -1.496,0.205 -0.171,0.058 -0.346,0.116 -0.529,0.156 0.012,0.076 0.021,0.153 0.027,0.229 0.04,0.456 -0.021,0.919 -0.179,1.376 -0.211,0.573 -0.499,1.009 -0.94,1.425 L 9.292,9.842 8.955,9.614 C 8.454,9.273 8.099,8.888 7.804,8.365 7.607,7.997 7.48,7.621 7.426,7.235 7.22,7.271 7.016,7.278 6.816,7.286 6.376,7.303 5.92,7.32 5.345,7.622 L 4.542,8.045 4.601,7.14 C 4.64,6.536 4.791,6.035 5.093,5.515 5.276,5.213 5.491,4.951 5.739,4.731 5.682,4.681 5.626,4.629 5.571,4.578 5.247,4.279 4.912,3.969 4.291,3.776 L 3.424,3.506 3.955,3.039 C 0.957,3.942 0,6.579 0,9.539 c 0,4.146 3.852,7.507 8.604,7.507 4.751,0 8.604,-3.361 8.604,-7.507 0,-3.056 -1.103,-5.959 -4.319,-6.734 z"
   id="path1105" />
		<path
   style="fill:#d6ffd6;fill-opacity:1"
   d="M 6.333,4.893 C 6.018,5.112 5.748,5.398 5.531,5.757 5.318,6.123 5.146,6.547 5.107,7.159 6.38,6.49 7.173,7.005 7.916,6.495 7.9,6.655 7.896,6.813 7.91,6.972 7.937,7.355 8.047,7.732 8.246,8.102 8.454,8.471 8.731,8.834 9.24,9.179 9.686,8.758 9.902,8.355 10.049,7.957 10.187,7.561 10.236,7.172 10.201,6.789 10.18,6.54 10.123,6.294 10.034,6.051 10.839,6.167 11.411,5.488 12.767,5.655 12.513,5.096 12.202,4.76 11.874,4.493 11.544,4.234 11.191,4.063 10.818,3.97 10.741,3.95 10.665,3.936 10.586,3.924 11.056,3.53 11.358,2.883 12.369,2.461 11.87,2.102 11.433,1.964 11.016,1.896 10.6,1.835 10.209,1.861 9.839,1.966 9.469,2.068 9.119,2.247 8.793,2.512 8.668,2.618 8.547,2.74 8.43,2.874 7.981,1.423 7.451,0.265 7.403,0.162 L 7.056,0.323 C 7.067,0.348 7.621,1.554 8.079,3.047 8.055,3.025 8.029,3.004 8.003,2.986 7.654,2.753 7.289,2.608 6.91,2.542 6.533,2.474 6.139,2.485 5.732,2.585 5.323,2.694 4.902,2.872 4.44,3.277 5.665,3.658 5.955,4.434 6.63,4.714 6.528,4.769 6.428,4.827 6.333,4.893 Z M 8.879,4.154 c 0.005,0 0.01,0.003 0.014,0.004 C 8.875,4.166 8.856,4.176 8.838,4.185 8.851,4.175 8.865,4.165 8.879,4.154 Z"
   id="path1107" />
	</g>
</g></g></svg>
