<?xml version="1.0" encoding="UTF-8" standalone="no"?>
<!-- Created with Inkscape (http://www.inkscape.org/) -->

<svg
   width="83.157013mm"
   height="28.548416mm"
   viewBox="0 0 83.157013 28.548416"
   version="1.1"
   id="svg5"
   xml:space="preserve"
   xmlns:inkscape="http://www.inkscape.org/namespaces/inkscape"
   xmlns:sodipodi="http://sodipodi.sourceforge.net/DTD/sodipodi-0.dtd"
   xmlns="http://www.w3.org/2000/svg"
   xmlns:svg="http://www.w3.org/2000/svg"
   xmlns:bx="https://boxy-svg.com"><sodipodi:namedview
     id="namedview7"
     pagecolor="#ffffff"
     bordercolor="#000000"
     borderopacity="0.25"
     inkscape:showpageshadow="2"
     inkscape:pageopacity="0.0"
     inkscape:pagecheckerboard="0"
     inkscape:deskcolor="#d1d1d1"
     inkscape:document-units="mm"
     showgrid="false" /><defs
     id="defs2"><style
       bx:fonts="Imprima"
       id="style103">@import url(https://fonts.googleapis.com/css2?family=Imprima%3Aital%2Cwght%400%2C400&amp;display=swap);</style></defs><g
     inkscape:label="Layer 1"
     inkscape:groupmode="layer"
     id="layer1"
     transform="translate(-67.0869,-141.97323)"><g
       id="g136"
       transform="matrix(0.33976566,0,0,0.32210493,21.472481,74.882307)"><path
         style="fill:#006500;stroke:#006500;stroke-opacity:0.1"
         d="m 318.55,226.86 -3.711,-0.048 0.191,3.033 4.074,0.09 c 8.988,0 10.305,-7.15 10.524,-8.826 1.158,-8.839 -6.755,-12.087 -12.229,-12.634 l -4.296,-0.326 0.333,3.169 4.09,0.355 c 2.577,0.329 9.749,1.643 8.497,9.61 -0.381,2.425 -2.651,5.749 -7.473,5.577 z"
         data-darkreader-inline-fill=""
         data-darkreader-inline-stroke=""
         transform="rotate(-100.81024,321.42252,219.04192)"
         id="path107"
         sodipodi:nodetypes="cccccccccsc"
         inkscape:export-filename="GroceriezLogo.svg"
         inkscape:export-xdpi="177.9433"
         inkscape:export-ydpi="177.9433" /><polygon
         style="fill:#006500;stroke:#006500;stroke-opacity:0.1"
         points="298.11,227.629 290.504,283.735 346.138,302.438 346.439,223.845 "
         data-darkreader-inline-fill=""
         data-darkreader-inline-stroke=""
         transform="rotate(-11.169081,318.47173,263.14122)"
         id="polygon109" /><polygon
         style="fill:#006500;stroke:#006500;stroke-opacity:0.1"
         points="351.579,218.443 346.11,215.752 346.186,294.226 372.917,284.585 363.689,217.546 "
         data-darkreader-inline-fill=""
         data-darkreader-inline-stroke=""
         transform="rotate(-11.169081,359.51373,254.98868)"
         id="polygon111" /><path
         style="fill:#006500;stroke:#006500;stroke-opacity:0.1"
         d="m 313.61,226.35 -4.804,-0.207 0.335,3.203 4.833,0.097 c 9.395,0 10.548,-8.167 10.664,-9.97 0.541,-8.382 -7.138,-12.504 -13.263,-12.846 l -4.532,-0.315 0.408,3.021 5.193,0.557 c 3.179,0.572 9.087,2.058 8.818,10.289 -0.085,2.618 -0.992,5.835 -7.652,6.171 z"
         data-darkreader-inline-fill=""
         data-darkreader-inline-stroke=""
         transform="rotate(-99.899526,315.754,217.87743)"
         id="path113"
         sodipodi:nodetypes="ccccccccccc" /><g
         aria-label="Groceri"
         id="text115"
         style="font-size:45px;font-family:Imprima;white-space:pre;fill:#006500"><path
           d="m 163.41029,270.74719 c -1.78711,0.82031 -3.74267,1.53809 -5.8667,2.15332 -2.10937,0.60059 -4.15283,0.90088 -6.13037,0.90088 -2.54883,0 -4.88525,-0.35156 -7.00927,-1.05469 -2.12403,-0.70312 -3.93311,-1.75781 -5.42725,-3.16406 -1.50879,-1.4209 -2.67334,-3.19336 -3.49365,-5.31738 -0.82031,-2.13867 -1.23047,-4.63623 -1.23047,-7.49268 0,-5.22949 1.52344,-9.35303 4.57031,-12.3706 3.06153,-3.03223 7.2583,-4.54834 12.59033,-4.54834 1.86035,0 3.75733,0.22705 5.69092,0.68115 1.94824,0.43945 4.04297,1.19385 6.28418,2.26318 v 5.16358 h -0.39551 c -0.4541,-0.35157 -1.11328,-0.81299 -1.97754,-1.38428 -0.86425,-0.57129 -1.71386,-1.04736 -2.54882,-1.42822 -1.01075,-0.4541 -2.16065,-0.82764 -3.44971,-1.12061 -1.27441,-0.30761 -2.72461,-0.46142 -4.35059,-0.46142 -3.66211,0 -6.5625,1.1792 -8.70117,3.53759 -2.12402,2.34375 -3.18603,5.52247 -3.18603,9.53614 0,4.23339 1.11328,7.52929 3.33984,9.88769 2.22656,2.34375 5.25879,3.51563 9.09668,3.51563 1.40625,0 2.80517,-0.13916 4.19678,-0.41748 1.40625,-0.27832 2.63671,-0.63721 3.6914,-1.07666 v -8.02002 h -8.76709 v -3.82324 h 13.07373 z"
           id="path414"
           sodipodi:nodetypes="ccssccsssccccsccscscsccccccc" /><path
           d="m 185.99818,253.12512 h -0.21972 c -0.61523,-0.14648 -1.21582,-0.24902 -1.80176,-0.30762 -0.57129,-0.0732 -1.25244,-0.10986 -2.04346,-0.10986 -1.27441,0 -2.50488,0.28565 -3.6914,0.85694 -1.18653,0.55664 -2.32911,1.28174 -3.42774,2.17529 v 17.42431 h -4.13086 v -24.54345 h 4.13086 v 3.62549 c 1.64063,-1.31836 3.0835,-2.24854 4.32862,-2.79053 1.25976,-0.55664 2.5415,-0.83496 3.84521,-0.83496 0.71777,0 1.23779,0.022 1.56006,0.0659 0.32227,0.0293 0.80566,0.0952 1.45019,0.19775 z"
           id="path416"
           sodipodi:nodetypes="cccsccccccccsccc" /><path
           d="m 210.80531,260.90344 c 0,3.99903 -1.02539,7.15577 -3.07617,9.47022 -2.05078,2.31445 -4.79736,3.47168 -8.23974,3.47168 -3.47168,0 -6.23291,-1.15723 -8.2837,-3.47168 -2.03613,-2.31445 -3.0542,-5.47119 -3.0542,-9.47022 0,-3.99902 1.01807,-7.15576 3.0542,-9.47021 2.05079,-2.3291 4.81202,-3.49365 8.2837,-3.49365 3.44238,0 6.18896,1.16455 8.23974,3.49365 2.05078,2.31445 3.07617,5.47119 3.07617,9.47021 z m -4.26269,0 c 0,-3.17871 -0.62256,-5.5371 -1.86768,-7.07519 -1.24511,-1.55273 -2.97363,-2.3291 -5.18554,-2.3291 -2.24121,0 -3.98438,0.77637 -5.2295,2.3291 -1.23047,1.53809 -1.8457,3.89648 -1.8457,7.07519 0,3.07617 0.62256,5.4126 1.86768,7.00928 1.24511,1.58203 2.98095,2.37305 5.20752,2.37305 2.19726,0 3.91845,-0.78369 5.16357,-2.35108 1.25977,-1.58203 1.88965,-3.92578 1.88965,-7.03125 z"
           id="path418"
           sodipodi:nodetypes="ssscscscsscscscscs" /><path
           d="m 235.34877,271.6261 c -1.37695,0.65918 -2.68799,1.17187 -3.93311,1.53808 -1.23047,0.36621 -2.5415,0.54932 -3.9331,0.54932 -1.77246,0 -3.39844,-0.25635 -4.87793,-0.76904 -1.47949,-0.52735 -2.74658,-1.31836 -3.80127,-2.37305 -1.06933,-1.05469 -1.89697,-2.38769 -2.48291,-3.99902 -0.58594,-1.61133 -0.87891,-3.49365 -0.87891,-5.64697 0,-4.01367 1.09863,-7.16309 3.2959,-9.44825 2.21191,-2.28515 5.12695,-3.42773 8.74512,-3.42773 1.40625,0 2.7832,0.19775 4.13086,0.59326 1.36231,0.39551 2.60742,0.87891 3.73535,1.4502 v 4.59228 h -0.21973 c -1.25976,-0.98145 -2.56347,-1.73584 -3.91113,-2.26318 -1.33301,-0.52735 -2.63672,-0.79102 -3.91113,-0.79102 -2.34375,0 -4.19678,0.79102 -5.55908,2.37305 -1.34766,1.56738 -2.02149,3.87451 -2.02149,6.92139 0,2.95898 0.65918,5.23681 1.97754,6.83349 1.33301,1.58203 3.20068,2.37305 5.60303,2.37305 0.83496,0 1.68457,-0.10986 2.54883,-0.32959 0.86425,-0.21973 1.64062,-0.50537 2.3291,-0.85694 0.60059,-0.30761 1.16455,-0.62988 1.69189,-0.96679 0.52735,-0.35157 0.94483,-0.65186 1.25244,-0.90088 h 0.21973 z"
           id="path420"
           sodipodi:nodetypes="ccsccsscscccccscscssccccc" /><path
           d="m 261.18861,261.32092 h -18.08349 c 0,1.50879 0.22705,2.82715 0.68115,3.95508 0.4541,1.11328 1.07666,2.02881 1.86768,2.74658 0.76171,0.70313 1.66259,1.23047 2.70263,1.58203 1.05469,0.35157 2.21191,0.52735 3.47168,0.52735 1.66993,0 3.34717,-0.32959 5.03174,-0.98877 1.69922,-0.67383 2.90772,-1.33301 3.62549,-1.97754 h 0.21973 v 4.50439 c -1.39161,0.58594 -2.81251,1.07666 -4.2627,1.47217 -1.45019,0.39551 -2.97363,0.59326 -4.57031,0.59326 -4.07227,0 -7.25098,-1.09863 -9.53614,-3.29589 -2.28515,-2.21192 -3.42773,-5.34669 -3.42773,-9.4043 0,-4.01367 1.09131,-7.19971 3.27393,-9.55811 2.19726,-2.35839 5.083,-3.53759 8.65722,-3.53759 3.31055,0 5.85938,0.9668 7.64649,2.90039 1.80175,1.93359 2.70263,4.68017 2.70263,8.23974 z m -4.02099,-3.16406 c -0.0147,-2.16797 -0.56398,-3.84521 -1.64795,-5.03174 -1.06934,-1.18652 -2.70264,-1.77978 -4.8999,-1.77978 -2.21191,0 -3.97705,0.65185 -5.29541,1.95556 -1.30371,1.30371 -2.04346,2.92237 -2.21924,4.85596 z"
           id="path422"
           sodipodi:nodetypes="cccccsccccsscscscscccsccc" /><path
           d="m 282.76576,253.12512 h -0.21972 c -0.61524,-0.14648 -1.21583,-0.24902 -1.80176,-0.30762 -0.57129,-0.0732 -1.25245,-0.10986 -2.04346,-0.10986 -1.27441,0 -2.50488,0.28565 -3.69141,0.85694 -1.18652,0.55664 -2.3291,1.28174 -3.42773,2.17529 v 17.42431 h -4.13086 v -24.54345 h 4.13086 v 3.62549 c 1.64063,-1.31836 3.0835,-2.24854 4.32861,-2.79053 1.25977,-0.55664 2.54151,-0.83496 3.84522,-0.83496 0.71777,0 1.23779,0.022 1.56006,0.0659 0.32227,0.0293 0.80566,0.0952 1.45019,0.19775 z"
           id="path424"
           sodipodi:nodetypes="cccsccccccccsccc" /><path
           d="m 291.0934,244.51184 h -4.6582 v -4.28467 h 4.6582 z m -0.26367,28.65234 h -4.13086 v -24.54345 h 4.13086 z"
           id="path426"
           sodipodi:nodetypes="cccccccccc" /></g><g
         aria-label="ez​"
         id="text121"
         style="font-size:44.9752px;font-family:Imprima;white-space:pre;fill:#ffffff;stroke-width:0.977721"><path
           d="m 318.8348,261.43762 h -18.07353 q 0,2.26193 0.68077,3.9529 0.68078,1.669 1.86665,2.74506 1.14195,1.05411 2.70115,1.58116 1.58116,0.52706 3.46976,0.52706 2.50351,0 5.02897,-0.98823 2.54742,-1.01018 3.62349,-1.97645 h 0.2196 v 4.50192 q -2.08625,0.87842 -4.26034,1.47135 -2.1741,0.59294 -4.5678,0.59294 -6.10503,0 -9.53087,-3.29408 -3.42585,-3.31605 -3.42585,-9.39912 0,-6.01719 3.27212,-9.55284 3.29408,-3.53565 8.65246,-3.53565 4.96308,0 7.64227,2.8988 2.70115,2.89879 2.70115,8.2352 z m -4.01878,-3.16232 q -0.022,-3.25016 -1.64705,-5.02897 -1.60312,-1.7788 -4.8972,-1.7788 -3.31604,0 -5.29249,1.95449 -1.95449,1.95449 -2.21801,4.85328 z"
           id="path429" /><path
           d="m 342.8816,273.27435 h -19.80842 v -3.05251 l 14.29632,-18.02961 h -13.98887 v -3.44781 h 19.12764 v 2.94272 l -14.3622,18.09549 h 14.73553 z"
           id="path431" /></g></g></g></svg>
